<?xml version="1.0" encoding="UTF-8"?>
<svg width="3638px" height="292px" viewBox="0 0 3638 292" version="1.1" xmlns="http://www.w3.org/2000/svg" xmlns:xlink="http://www.w3.org/1999/xlink">
    <title>AboutMeAboutMe</title>
    <g id="Main" stroke="none" stroke-width="1" fill="none" fill-rule="evenodd">
        <path d="M63.8,286 L86.2,222.4 L193,222.4 L214.6,286 L279.8,286 L173,0.4 L108.6,0.4 L0.6,286 L63.8,286 Z M176.6,175.6 L102.6,175.6 L139.8,70.8 L140.6,70.8 L176.6,175.6 Z M411.8,291.2 C422.2,291.2 432.466667,289.066667 442.6,284.8 C452.733333,280.533333 461.866667,274 470,265.2 C478.133333,256.4 484.733333,245.133333 489.8,231.4 C494.866667,217.666667 497.4,201.333333 497.4,182.4 C497.4,163.466667 494.866667,147.133333 489.8,133.4 C484.733333,119.666667 478.133333,108.4 470,99.6 C461.866667,90.8 452.733333,84.2666667 442.6,80 C432.466667,75.7333333 422.2,73.6 411.8,73.6 C399,73.6 386.666667,76.0666667 374.8,81 C362.933333,85.9333333 353.533333,93.7333333 346.6,104.4 L345.8,104.4 L345.8,0.4 L289,0.4 L289,286 L343,286 L343,259.6 L343.8,259.6 C349.933333,271.066667 359,279.2 371,284 C383,288.8 396.6,291.2 411.8,291.2 Z M392.2,248.8 C383.933333,248.8 376.733333,247 370.6,243.4 C364.466667,239.8 359.4,234.933333 355.4,228.8 C351.4,222.666667 348.466667,215.6 346.6,207.6 C344.733333,199.6 343.8,191.333333 343.8,182.8 C343.8,174 344.733333,165.6 346.6,157.6 C348.466667,149.6 351.4,142.533333 355.4,136.4 C359.4,130.266667 364.466667,125.4 370.6,121.8 C376.733333,118.2 383.933333,116.4 392.2,116.4 C400.733333,116.4 408,118.2 414,121.8 C420,125.4 425,130.266667 429,136.4 C433,142.533333 435.933333,149.6 437.8,157.6 C439.666667,165.6 440.6,174 440.6,182.8 C440.6,191.333333 439.666667,199.6 437.8,207.6 C435.933333,215.6 433,222.666667 429,228.8 C425,234.933333 420,239.8 414,243.4 C408,247 400.733333,248.8 392.2,248.8 Z M624.2,291.2 C640.466667,291.2 655.2,288.666667 668.4,283.6 C681.6,278.533333 692.866667,271.266667 702.2,261.8 C711.533333,252.333333 718.733333,240.933333 723.8,227.6 C728.866667,214.266667 731.4,199.333333 731.4,182.8 C731.4,166.266667 728.866667,151.266667 723.8,137.8 C718.733333,124.333333 711.533333,112.866667 702.2,103.4 C692.866667,93.9333333 681.6,86.6 668.4,81.4 C655.2,76.2 640.466667,73.6 624.2,73.6 C607.933333,73.6 593.266667,76.2 580.2,81.4 C567.133333,86.6 555.933333,93.9333333 546.6,103.4 C537.266667,112.866667 530.066667,124.333333 525,137.8 C519.933333,151.266667 517.4,166.266667 517.4,182.8 C517.4,199.333333 519.933333,214.266667 525,227.6 C530.066667,240.933333 537.266667,252.333333 546.6,261.8 C555.933333,271.266667 567.133333,278.533333 580.2,283.6 C593.266667,288.666667 607.933333,291.2 624.2,291.2 Z M624.2,248.8 C614.6,248.8 606.6,246.933333 600.2,243.2 C593.8,239.466667 588.666667,234.466667 584.8,228.2 C580.933333,221.933333 578.2,214.866667 576.6,207 C575,199.133333 574.2,191.066667 574.2,182.8 C574.2,174.533333 575,166.4 576.6,158.4 C578.2,150.4 580.933333,143.333333 584.8,137.2 C588.666667,131.066667 593.8,126.066667 600.2,122.2 C606.6,118.333333 614.6,116.4 624.2,116.4 C633.8,116.4 641.866667,118.333333 648.4,122.2 C654.933333,126.066667 660.133333,131.066667 664,137.2 C667.866667,143.333333 670.6,150.4 672.2,158.4 C673.8,166.4 674.6,174.533333 674.6,182.8 C674.6,191.066667 673.8,199.133333 672.2,207 C670.6,214.866667 667.866667,221.933333 664,228.2 C660.133333,234.466667 654.933333,239.466667 648.4,243.2 C641.866667,246.933333 633.8,248.8 624.2,248.8 Z M834.2,291.2 C846.2,291.2 857.933333,288.533333 869.4,283.2 C880.866667,277.866667 890.2,269.2 897.4,257.2 L898.6,257.2 L898.6,286 L952.6,286 L952.6,79.2 L895.8,79.2 L895.8,187.6 C895.8,208.666667 892.333333,223.8 885.4,233 C878.466667,242.2 867.266667,246.8 851.8,246.8 C838.2,246.8 828.733333,242.6 823.4,234.2 C818.066667,225.8 815.4,213.066667 815.4,196 L815.4,79.2 L758.6,79.2 L758.6,206.4 C758.6,219.2 759.733333,230.866667 762,241.4 C764.266667,251.933333 768.2,260.866667 773.8,268.2 C779.4,275.533333 787.066667,281.2 796.8,285.2 C806.533333,289.2 819,291.2 834.2,291.2 Z M1066.6,288 C1072.2,288 1077.93333,287.866667 1083.8,287.6 C1089.66667,287.333333 1095,286.8 1099.8,286 L1099.8,242 C1097.13333,242.533333 1094.33333,242.933333 1091.4,243.2 C1088.46667,243.466667 1085.4,243.6 1082.2,243.6 C1072.6,243.6 1066.2,242 1063,238.8 C1059.8,235.6 1058.2,229.2 1058.2,219.6 L1058.2,117.2 L1099.8,117.2 L1099.8,79.2 L1058.2,79.2 L1058.2,17.2 L1001.4,17.2 L1001.4,79.2 L967,79.2 L967,117.2 L1001.4,117.2 L1001.4,239.2 C1001.4,249.6 1003.13333,258 1006.6,264.4 C1010.06667,270.8 1014.8,275.733333 1020.8,279.2 C1026.8,282.666667 1033.73333,285 1041.6,286.2 C1049.46667,287.4 1057.8,288 1066.6,288 Z M1283.8,286 L1283.8,85.6 L1284.6,85.6 L1354.6,286 L1403,286 L1473,83.6 L1473.8,83.6 L1473.8,286 L1532.6,286 L1532.6,0.4 L1444.2,0.4 L1381,196.8 L1380.2,196.8 L1313.4,0.4 L1225,0.4 L1225,286 L1283.8,286 Z M1667.8,291.2 C1691.26667,291.2 1711.26667,285.866667 1727.8,275.2 C1744.33333,264.533333 1756.6,246.8 1764.6,222 L1714.6,222 C1712.73333,228.4 1707.66667,234.466667 1699.4,240.2 C1691.13333,245.933333 1681.26667,248.8 1669.8,248.8 C1653.8,248.8 1641.53333,244.666667 1633,236.4 C1624.46667,228.133333 1619.8,214.8 1619,196.4 L1768.2,196.4 C1769.26667,180.4 1767.93333,165.066667 1764.2,150.4 C1760.46667,135.733333 1754.4,122.666667 1746,111.2 C1737.6,99.7333333 1726.86667,90.6 1713.8,83.8 C1700.73333,77 1685.4,73.6 1667.8,73.6 C1652.06667,73.6 1637.73333,76.4 1624.8,82 C1611.86667,87.6 1600.73333,95.2666667 1591.4,105 C1582.06667,114.733333 1574.86667,126.266667 1569.8,139.6 C1564.73333,152.933333 1562.2,167.333333 1562.2,182.8 C1562.2,198.8 1564.66667,213.466667 1569.6,226.8 C1574.53333,240.133333 1581.53333,251.6 1590.6,261.2 C1599.66667,270.8 1610.73333,278.2 1623.8,283.4 C1636.86667,288.6 1651.53333,291.2 1667.8,291.2 Z M1711.4,160.4 L1619,160.4 C1619.26667,156.4 1620.13333,151.866667 1621.6,146.8 C1623.06667,141.733333 1625.6,136.933333 1629.2,132.4 C1632.8,127.866667 1637.6,124.066667 1643.6,121 C1649.6,117.933333 1657.13333,116.4 1666.2,116.4 C1680.06667,116.4 1690.4,120.133333 1697.2,127.6 C1704,135.066667 1708.73333,146 1711.4,160.4 Z M1933,286 L1955.4,222.4 L2062.2,222.4 L2083.8,286 L2149,286 L2042.2,0.4 L1977.8,0.4 L1869.8,286 L1933,286 Z M2045.8,175.6 L1971.8,175.6 L2009,70.8 L2009.8,70.8 L2045.8,175.6 Z M2281,291.2 C2291.4,291.2 2301.66667,289.066667 2311.8,284.8 C2321.93333,280.533333 2331.06667,274 2339.2,265.2 C2347.33333,256.4 2353.93333,245.133333 2359,231.4 C2364.06667,217.666667 2366.6,201.333333 2366.6,182.4 C2366.6,163.466667 2364.06667,147.133333 2359,133.4 C2353.93333,119.666667 2347.33333,108.4 2339.2,99.6 C2331.06667,90.8 2321.93333,84.2666667 2311.8,80 C2301.66667,75.7333333 2291.4,73.6 2281,73.6 C2268.2,73.6 2255.86667,76.0666667 2244,81 C2232.13333,85.9333333 2222.73333,93.7333333 2215.8,104.4 L2215,104.4 L2215,0.4 L2158.2,0.4 L2158.2,286 L2212.2,286 L2212.2,259.6 L2213,259.6 C2219.13333,271.066667 2228.2,279.2 2240.2,284 C2252.2,288.8 2265.8,291.2 2281,291.2 Z M2261.4,248.8 C2253.13333,248.8 2245.93333,247 2239.8,243.4 C2233.66667,239.8 2228.6,234.933333 2224.6,228.8 C2220.6,222.666667 2217.66667,215.6 2215.8,207.6 C2213.93333,199.6 2213,191.333333 2213,182.8 C2213,174 2213.93333,165.6 2215.8,157.6 C2217.66667,149.6 2220.6,142.533333 2224.6,136.4 C2228.6,130.266667 2233.66667,125.4 2239.8,121.8 C2245.93333,118.2 2253.13333,116.4 2261.4,116.4 C2269.93333,116.4 2277.2,118.2 2283.2,121.8 C2289.2,125.4 2294.2,130.266667 2298.2,136.4 C2302.2,142.533333 2305.13333,149.6 2307,157.6 C2308.86667,165.6 2309.8,174 2309.8,182.8 C2309.8,191.333333 2308.86667,199.6 2307,207.6 C2305.13333,215.6 2302.2,222.666667 2298.2,228.8 C2294.2,234.933333 2289.2,239.8 2283.2,243.4 C2277.2,247 2269.93333,248.8 2261.4,248.8 Z M2493.4,291.2 C2509.66667,291.2 2524.4,288.666667 2537.6,283.6 C2550.8,278.533333 2562.06667,271.266667 2571.4,261.8 C2580.73333,252.333333 2587.93333,240.933333 2593,227.6 C2598.06667,214.266667 2600.6,199.333333 2600.6,182.8 C2600.6,166.266667 2598.06667,151.266667 2593,137.8 C2587.93333,124.333333 2580.73333,112.866667 2571.4,103.4 C2562.06667,93.9333333 2550.8,86.6 2537.6,81.4 C2524.4,76.2 2509.66667,73.6 2493.4,73.6 C2477.13333,73.6 2462.46667,76.2 2449.4,81.4 C2436.33333,86.6 2425.13333,93.9333333 2415.8,103.4 C2406.46667,112.866667 2399.26667,124.333333 2394.2,137.8 C2389.13333,151.266667 2386.6,166.266667 2386.6,182.8 C2386.6,199.333333 2389.13333,214.266667 2394.2,227.6 C2399.26667,240.933333 2406.46667,252.333333 2415.8,261.8 C2425.13333,271.266667 2436.33333,278.533333 2449.4,283.6 C2462.46667,288.666667 2477.13333,291.2 2493.4,291.2 Z M2493.4,248.8 C2483.8,248.8 2475.8,246.933333 2469.4,243.2 C2463,239.466667 2457.86667,234.466667 2454,228.2 C2450.13333,221.933333 2447.4,214.866667 2445.8,207 C2444.2,199.133333 2443.4,191.066667 2443.4,182.8 C2443.4,174.533333 2444.2,166.4 2445.8,158.4 C2447.4,150.4 2450.13333,143.333333 2454,137.2 C2457.86667,131.066667 2463,126.066667 2469.4,122.2 C2475.8,118.333333 2483.8,116.4 2493.4,116.4 C2503,116.4 2511.06667,118.333333 2517.6,122.2 C2524.13333,126.066667 2529.33333,131.066667 2533.2,137.2 C2537.06667,143.333333 2539.8,150.4 2541.4,158.4 C2543,166.4 2543.8,174.533333 2543.8,182.8 C2543.8,191.066667 2543,199.133333 2541.4,207 C2539.8,214.866667 2537.06667,221.933333 2533.2,228.2 C2529.33333,234.466667 2524.13333,239.466667 2517.6,243.2 C2511.06667,246.933333 2503,248.8 2493.4,248.8 Z M2703.4,291.2 C2715.4,291.2 2727.13333,288.533333 2738.6,283.2 C2750.06667,277.866667 2759.4,269.2 2766.6,257.2 L2767.8,257.2 L2767.8,286 L2821.8,286 L2821.8,79.2 L2765,79.2 L2765,187.6 C2765,208.666667 2761.53333,223.8 2754.6,233 C2747.66667,242.2 2736.46667,246.8 2721,246.8 C2707.4,246.8 2697.93333,242.6 2692.6,234.2 C2687.26667,225.8 2684.6,213.066667 2684.6,196 L2684.6,79.2 L2627.8,79.2 L2627.8,206.4 C2627.8,219.2 2628.93333,230.866667 2631.2,241.4 C2633.46667,251.933333 2637.4,260.866667 2643,268.2 C2648.6,275.533333 2656.26667,281.2 2666,285.2 C2675.73333,289.2 2688.2,291.2 2703.4,291.2 Z M2935.8,288 C2941.4,288 2947.13333,287.866667 2953,287.6 C2958.86667,287.333333 2964.2,286.8 2969,286 L2969,242 C2966.33333,242.533333 2963.53333,242.933333 2960.6,243.2 C2957.66667,243.466667 2954.6,243.6 2951.4,243.6 C2941.8,243.6 2935.4,242 2932.2,238.8 C2929,235.6 2927.4,229.2 2927.4,219.6 L2927.4,117.2 L2969,117.2 L2969,79.2 L2927.4,79.2 L2927.4,17.2 L2870.6,17.2 L2870.6,79.2 L2836.2,79.2 L2836.2,117.2 L2870.6,117.2 L2870.6,239.2 C2870.6,249.6 2872.33333,258 2875.8,264.4 C2879.26667,270.8 2884,275.733333 2890,279.2 C2896,282.666667 2902.93333,285 2910.8,286.2 C2918.66667,287.4 2927,288 2935.8,288 Z M3153,286 L3153,85.6 L3153.8,85.6 L3223.8,286 L3272.2,286 L3342.2,83.6 L3343,83.6 L3343,286 L3401.8,286 L3401.8,0.4 L3313.4,0.4 L3250.2,196.8 L3249.4,196.8 L3182.6,0.4 L3094.2,0.4 L3094.2,286 L3153,286 Z M3537,291.2 C3560.46667,291.2 3580.46667,285.866667 3597,275.2 C3613.53333,264.533333 3625.8,246.8 3633.8,222 L3583.8,222 C3581.93333,228.4 3576.86667,234.466667 3568.6,240.2 C3560.33333,245.933333 3550.46667,248.8 3539,248.8 C3523,248.8 3510.73333,244.666667 3502.2,236.4 C3493.66667,228.133333 3489,214.8 3488.2,196.4 L3637.4,196.4 C3638.46667,180.4 3637.13333,165.066667 3633.4,150.4 C3629.66667,135.733333 3623.6,122.666667 3615.2,111.2 C3606.8,99.7333333 3596.06667,90.6 3583,83.8 C3569.93333,77 3554.6,73.6 3537,73.6 C3521.26667,73.6 3506.93333,76.4 3494,82 C3481.06667,87.6 3469.93333,95.2666667 3460.6,105 C3451.26667,114.733333 3444.06667,126.266667 3439,139.6 C3433.93333,152.933333 3431.4,167.333333 3431.4,182.8 C3431.4,198.8 3433.86667,213.466667 3438.8,226.8 C3443.73333,240.133333 3450.73333,251.6 3459.8,261.2 C3468.86667,270.8 3479.93333,278.2 3493,283.4 C3506.06667,288.6 3520.73333,291.2 3537,291.2 Z M3580.6,160.4 L3488.2,160.4 C3488.46667,156.4 3489.33333,151.866667 3490.8,146.8 C3492.26667,141.733333 3494.8,136.933333 3498.4,132.4 C3502,127.866667 3506.8,124.066667 3512.8,121 C3518.8,117.933333 3526.33333,116.4 3535.4,116.4 C3549.26667,116.4 3559.6,120.133333 3566.4,127.6 C3573.2,135.066667 3577.93333,146 3580.6,160.4 Z" id="AboutMeAboutMe" fill="#111111" fill-rule="nonzero"></path>
    </g>
</svg>