<?xml version="1.0" encoding="UTF-8"?>
<svg width="2835px" height="359px" viewBox="0 0 2835 359" version="1.1" xmlns="http://www.w3.org/2000/svg" xmlns:xlink="http://www.w3.org/1999/xlink">
    <title>RecentProject</title>
    <defs>
        <path d="M63.4,286 L63.4,174.4 L126.2,174.4 C141.933333,174.4 153.266667,177.866667 160.2,184.8 C167.133333,191.733333 171.666667,202.666667 173.8,217.6 C175.4,229.066667 176.6,241.066667 177.4,253.6 C178.2,266.133333 180.333333,276.933333 183.8,286 L246.6,286 C243.666667,282 241.466667,277.133333 240,271.4 C238.533333,265.666667 237.466667,259.6 236.8,253.2 C236.133333,246.8 235.666667,240.533333 235.4,234.4 C235.133333,228.266667 234.866667,222.933333 234.6,218.4 C234.066667,211.2 233.066667,204 231.6,196.8 C230.133333,189.6 227.8,183 224.6,177 C221.4,171 217.266667,165.8 212.2,161.4 C207.133333,157 200.733333,153.733333 193,151.6 L193,150.8 C209,144.4 220.533333,135.066667 227.6,122.8 C234.666667,110.533333 238.2,96 238.2,79.2 C238.2,68.2666667 236.266667,58.0666667 232.4,48.6 C228.533333,39.1333333 222.933333,30.8 215.6,23.6 C208.266667,16.4 199.466667,10.7333333 189.2,6.6 C178.933333,2.46666667 167.4,0.4 154.6,0.4 L0.6,0.4 L0.6,286 L63.4,286 Z M132.2,129.6 L63.4,129.6 L63.4,49.2 L132.2,49.2 C146.6,49.2 157.4,52.3333333 164.6,58.6 C171.8,64.8666667 175.4,74.9333333 175.4,88.8 C175.4,103.2 171.8,113.6 164.6,120 C157.4,126.4 146.6,129.6 132.2,129.6 Z M379,291.2 C402.466667,291.2 422.466667,285.866667 439,275.2 C455.533333,264.533333 467.8,246.8 475.8,222 L425.8,222 C423.933333,228.4 418.866667,234.466667 410.6,240.2 C402.333333,245.933333 392.466667,248.8 381,248.8 C365,248.8 352.733333,244.666667 344.2,236.4 C335.666667,228.133333 331,214.8 330.2,196.4 L479.4,196.4 C480.466667,180.4 479.133333,165.066667 475.4,150.4 C471.666667,135.733333 465.6,122.666667 457.2,111.2 C448.8,99.7333333 438.066667,90.6 425,83.8 C411.933333,77 396.6,73.6 379,73.6 C363.266667,73.6 348.933333,76.4 336,82 C323.066667,87.6 311.933333,95.2666667 302.6,105 C293.266667,114.733333 286.066667,126.266667 281,139.6 C275.933333,152.933333 273.4,167.333333 273.4,182.8 C273.4,198.8 275.866667,213.466667 280.8,226.8 C285.733333,240.133333 292.733333,251.6 301.8,261.2 C310.866667,270.8 321.933333,278.2 335,283.4 C348.066667,288.6 362.733333,291.2 379,291.2 Z M422.6,160.4 L330.2,160.4 C330.466667,156.4 331.333333,151.866667 332.8,146.8 C334.266667,141.733333 336.8,136.933333 340.4,132.4 C344,127.866667 348.8,124.066667 354.8,121 C360.8,117.933333 368.333333,116.4 377.4,116.4 C391.266667,116.4 401.6,120.133333 408.4,127.6 C415.2,135.066667 419.933333,146 422.6,160.4 Z M611,291.2 C638.466667,291.2 661,284 678.6,269.6 C696.2,255.2 706.866667,234.266667 710.6,206.8 L655.8,206.8 C653.933333,219.6 649.333333,229.8 642,237.4 C634.666667,245 624.2,248.8 610.6,248.8 C601.8,248.8 594.333333,246.8 588.2,242.8 C582.066667,238.8 577.2,233.666667 573.6,227.4 C570,221.133333 567.4,214.133333 565.8,206.4 C564.2,198.666667 563.4,191.066667 563.4,183.6 C563.4,175.866667 564.2,168.066667 565.8,160.2 C567.4,152.333333 570.133333,145.133333 574,138.6 C577.866667,132.066667 582.866667,126.733333 589,122.6 C595.133333,118.466667 602.733333,116.4 611.8,116.4 C636.066667,116.4 650.066667,128.266667 653.8,152 L709.4,152 C708.6,138.666667 705.4,127.133333 699.8,117.4 C694.2,107.666667 686.933333,99.5333333 678,93 C669.066667,86.4666667 658.933333,81.6 647.6,78.4 C636.266667,75.2 624.466667,73.6 612.2,73.6 C595.4,73.6 580.466667,76.4 567.4,82 C554.333333,87.6 543.266667,95.4 534.2,105.4 C525.133333,115.4 518.266667,127.266667 513.6,141 C508.933333,154.733333 506.6,169.6 506.6,185.6 C506.6,201.066667 509.133333,215.266667 514.2,228.2 C519.266667,241.133333 526.333333,252.266667 535.4,261.6 C544.466667,270.933333 555.466667,278.2 568.4,283.4 C581.333333,288.6 595.533333,291.2 611,291.2 Z M838.2,291.2 C861.666667,291.2 881.666667,285.866667 898.2,275.2 C914.733333,264.533333 927,246.8 935,222 L885,222 C883.133333,228.4 878.066667,234.466667 869.8,240.2 C861.533333,245.933333 851.666667,248.8 840.2,248.8 C824.2,248.8 811.933333,244.666667 803.4,236.4 C794.866667,228.133333 790.2,214.8 789.4,196.4 L938.6,196.4 C939.666667,180.4 938.333333,165.066667 934.6,150.4 C930.866667,135.733333 924.8,122.666667 916.4,111.2 C908,99.7333333 897.266667,90.6 884.2,83.8 C871.133333,77 855.8,73.6 838.2,73.6 C822.466667,73.6 808.133333,76.4 795.2,82 C782.266667,87.6 771.133333,95.2666667 761.8,105 C752.466667,114.733333 745.266667,126.266667 740.2,139.6 C735.133333,152.933333 732.6,167.333333 732.6,182.8 C732.6,198.8 735.066667,213.466667 740,226.8 C744.933333,240.133333 751.933333,251.6 761,261.2 C770.066667,270.8 781.133333,278.2 794.2,283.4 C807.266667,288.6 821.933333,291.2 838.2,291.2 Z M881.8,160.4 L789.4,160.4 C789.666667,156.4 790.533333,151.866667 792,146.8 C793.466667,141.733333 796,136.933333 799.6,132.4 C803.2,127.866667 808,124.066667 814,121 C820,117.933333 827.533333,116.4 836.6,116.4 C850.466667,116.4 860.8,120.133333 867.6,127.6 C874.4,135.066667 879.133333,146 881.8,160.4 Z M1029,286 L1029,177.6 C1029,156.533333 1032.46667,141.4 1039.4,132.2 C1046.33333,123 1057.53333,118.4 1073,118.4 C1086.6,118.4 1096.06667,122.6 1101.4,131 C1106.73333,139.4 1109.4,152.133333 1109.4,169.2 L1109.4,286 L1166.2,286 L1166.2,158.8 C1166.2,146 1165.06667,134.333333 1162.8,123.8 C1160.53333,113.266667 1156.6,104.333333 1151,97 C1145.4,89.6666667 1137.73333,83.9333333 1128,79.8 C1118.26667,75.6666667 1105.8,73.6 1090.6,73.6 C1078.6,73.6 1066.86667,76.3333333 1055.4,81.8 C1043.93333,87.2666667 1034.6,96 1027.4,108 L1026.2,108 L1026.2,79.2 L972.2,79.2 L972.2,286 L1029,286 Z M1289.8,288 C1295.4,288 1301.13333,287.866667 1307,287.6 C1312.86667,287.333333 1318.2,286.8 1323,286 L1323,242 C1320.33333,242.533333 1317.53333,242.933333 1314.6,243.2 C1311.66667,243.466667 1308.6,243.6 1305.4,243.6 C1295.8,243.6 1289.4,242 1286.2,238.8 C1283,235.6 1281.4,229.2 1281.4,219.6 L1281.4,117.2 L1323,117.2 L1323,79.2 L1281.4,79.2 L1281.4,17.2 L1224.6,17.2 L1224.6,79.2 L1190.2,79.2 L1190.2,117.2 L1224.6,117.2 L1224.6,239.2 C1224.6,249.6 1226.33333,258 1229.8,264.4 C1233.26667,270.8 1238,275.733333 1244,279.2 C1250,282.666667 1256.93333,285 1264.8,286.2 C1272.66667,287.4 1281,288 1289.8,288 Z M1530.2,286 L1530.2,183.6 L1596.2,183.6 C1614.06667,183.6 1629.26667,181 1641.8,175.8 C1654.33333,170.6 1664.53333,163.733333 1672.4,155.2 C1680.26667,146.666667 1686,136.866667 1689.6,125.8 C1693.2,114.733333 1695,103.466667 1695,92 C1695,80.2666667 1693.2,68.9333333 1689.6,58 C1686,47.0666667 1680.26667,37.3333333 1672.4,28.8 C1664.53333,20.2666667 1654.33333,13.4 1641.8,8.2 C1629.26667,3 1614.06667,0.4 1596.2,0.4 L1467.4,0.4 L1467.4,286 L1530.2,286 Z M1579,134.8 L1530.2,134.8 L1530.2,49.2 L1579,49.2 C1586.2,49.2 1593.13333,49.7333333 1599.8,50.8 C1606.46667,51.8666667 1612.33333,53.9333333 1617.4,57 C1622.46667,60.0666667 1626.53333,64.4 1629.6,70 C1632.66667,75.6 1634.2,82.9333333 1634.2,92 C1634.2,101.066667 1632.66667,108.4 1629.6,114 C1626.53333,119.6 1622.46667,123.933333 1617.4,127 C1612.33333,130.066667 1606.46667,132.133333 1599.8,133.2 C1593.13333,134.266667 1586.2,134.8 1579,134.8 Z M1785,286 L1785,192.8 C1785,183.466667 1785.93333,174.8 1787.8,166.8 C1789.66667,158.8 1792.8,151.8 1797.2,145.8 C1801.6,139.8 1807.4,135.066667 1814.6,131.6 C1821.8,128.133333 1830.6,126.4 1841,126.4 C1844.46667,126.4 1848.06667,126.6 1851.8,127 C1855.53333,127.4 1858.73333,127.866667 1861.4,128.4 L1861.4,75.6 C1856.86667,74.2666667 1852.73333,73.6 1849,73.6 C1841.8,73.6 1834.86667,74.6666667 1828.2,76.8 C1821.53333,78.9333333 1815.26667,81.9333333 1809.4,85.8 C1803.53333,89.6666667 1798.33333,94.3333333 1793.8,99.8 C1789.26667,105.266667 1785.66667,111.2 1783,117.6 L1782.2,117.6 L1782.2,79.2 L1728.2,79.2 L1728.2,286 L1785,286 Z M1977,291.2 C1993.26667,291.2 2008,288.666667 2021.2,283.6 C2034.4,278.533333 2045.66667,271.266667 2055,261.8 C2064.33333,252.333333 2071.53333,240.933333 2076.6,227.6 C2081.66667,214.266667 2084.2,199.333333 2084.2,182.8 C2084.2,166.266667 2081.66667,151.266667 2076.6,137.8 C2071.53333,124.333333 2064.33333,112.866667 2055,103.4 C2045.66667,93.9333333 2034.4,86.6 2021.2,81.4 C2008,76.2 1993.26667,73.6 1977,73.6 C1960.73333,73.6 1946.06667,76.2 1933,81.4 C1919.93333,86.6 1908.73333,93.9333333 1899.4,103.4 C1890.06667,112.866667 1882.86667,124.333333 1877.8,137.8 C1872.73333,151.266667 1870.2,166.266667 1870.2,182.8 C1870.2,199.333333 1872.73333,214.266667 1877.8,227.6 C1882.86667,240.933333 1890.06667,252.333333 1899.4,261.8 C1908.73333,271.266667 1919.93333,278.533333 1933,283.6 C1946.06667,288.666667 1960.73333,291.2 1977,291.2 Z M1977,248.8 C1967.4,248.8 1959.4,246.933333 1953,243.2 C1946.6,239.466667 1941.46667,234.466667 1937.6,228.2 C1933.73333,221.933333 1931,214.866667 1929.4,207 C1927.8,199.133333 1927,191.066667 1927,182.8 C1927,174.533333 1927.8,166.4 1929.4,158.4 C1931,150.4 1933.73333,143.333333 1937.6,137.2 C1941.46667,131.066667 1946.6,126.066667 1953,122.2 C1959.4,118.333333 1967.4,116.4 1977,116.4 C1986.6,116.4 1994.66667,118.333333 2001.2,122.2 C2007.73333,126.066667 2012.93333,131.066667 2016.8,137.2 C2020.66667,143.333333 2023.4,150.4 2025,158.4 C2026.6,166.4 2027.4,174.533333 2027.4,182.8 C2027.4,191.066667 2026.6,199.133333 2025,207 C2023.4,214.866667 2020.66667,221.933333 2016.8,228.2 C2012.93333,234.466667 2007.73333,239.466667 2001.2,243.2 C1994.66667,246.933333 1986.6,248.8 1977,248.8 Z M2183,47.2 L2183,0.4 L2126.2,0.4 L2126.2,47.2 L2183,47.2 Z M2110.2,358.4 C2124.6,358.4 2136.46667,357.133333 2145.8,354.6 C2155.13333,352.066667 2162.53333,348.2 2168,343 C2173.46667,337.8 2177.33333,331.333333 2179.6,323.6 C2181.86667,315.866667 2183,306.666667 2183,296 L2183,79.2 L2126.2,79.2 L2126.2,293.2 C2126.2,300.933333 2124,305.933333 2119.6,308.2 C2115.2,310.466667 2110.06667,311.6 2104.2,311.6 C2099.13333,311.6 2095.13333,311.066667 2092.2,310 L2092.2,356.8 C2097.53333,357.866667 2103.53333,358.4 2110.2,358.4 Z M2327.8,291.2 C2351.26667,291.2 2371.26667,285.866667 2387.8,275.2 C2404.33333,264.533333 2416.6,246.8 2424.6,222 L2374.6,222 C2372.73333,228.4 2367.66667,234.466667 2359.4,240.2 C2351.13333,245.933333 2341.26667,248.8 2329.8,248.8 C2313.8,248.8 2301.53333,244.666667 2293,236.4 C2284.46667,228.133333 2279.8,214.8 2279,196.4 L2428.2,196.4 C2429.26667,180.4 2427.93333,165.066667 2424.2,150.4 C2420.46667,135.733333 2414.4,122.666667 2406,111.2 C2397.6,99.7333333 2386.86667,90.6 2373.8,83.8 C2360.73333,77 2345.4,73.6 2327.8,73.6 C2312.06667,73.6 2297.73333,76.4 2284.8,82 C2271.86667,87.6 2260.73333,95.2666667 2251.4,105 C2242.06667,114.733333 2234.86667,126.266667 2229.8,139.6 C2224.73333,152.933333 2222.2,167.333333 2222.2,182.8 C2222.2,198.8 2224.66667,213.466667 2229.6,226.8 C2234.53333,240.133333 2241.53333,251.6 2250.6,261.2 C2259.66667,270.8 2270.73333,278.2 2283.8,283.4 C2296.86667,288.6 2311.53333,291.2 2327.8,291.2 Z M2371.4,160.4 L2279,160.4 C2279.26667,156.4 2280.13333,151.866667 2281.6,146.8 C2283.06667,141.733333 2285.6,136.933333 2289.2,132.4 C2292.8,127.866667 2297.6,124.066667 2303.6,121 C2309.6,117.933333 2317.13333,116.4 2326.2,116.4 C2340.06667,116.4 2350.4,120.133333 2357.2,127.6 C2364,135.066667 2368.73333,146 2371.4,160.4 Z M2559.8,291.2 C2587.26667,291.2 2609.8,284 2627.4,269.6 C2645,255.2 2655.66667,234.266667 2659.4,206.8 L2604.6,206.8 C2602.73333,219.6 2598.13333,229.8 2590.8,237.4 C2583.46667,245 2573,248.8 2559.4,248.8 C2550.6,248.8 2543.13333,246.8 2537,242.8 C2530.86667,238.8 2526,233.666667 2522.4,227.4 C2518.8,221.133333 2516.2,214.133333 2514.6,206.4 C2513,198.666667 2512.2,191.066667 2512.2,183.6 C2512.2,175.866667 2513,168.066667 2514.6,160.2 C2516.2,152.333333 2518.93333,145.133333 2522.8,138.6 C2526.66667,132.066667 2531.66667,126.733333 2537.8,122.6 C2543.93333,118.466667 2551.53333,116.4 2560.6,116.4 C2584.86667,116.4 2598.86667,128.266667 2602.6,152 L2658.2,152 C2657.4,138.666667 2654.2,127.133333 2648.6,117.4 C2643,107.666667 2635.73333,99.5333333 2626.8,93 C2617.86667,86.4666667 2607.73333,81.6 2596.4,78.4 C2585.06667,75.2 2573.26667,73.6 2561,73.6 C2544.2,73.6 2529.26667,76.4 2516.2,82 C2503.13333,87.6 2492.06667,95.4 2483,105.4 C2473.93333,115.4 2467.06667,127.266667 2462.4,141 C2457.73333,154.733333 2455.4,169.6 2455.4,185.6 C2455.4,201.066667 2457.93333,215.266667 2463,228.2 C2468.06667,241.133333 2475.13333,252.266667 2484.2,261.6 C2493.26667,270.933333 2504.26667,278.2 2517.2,283.4 C2530.13333,288.6 2544.33333,291.2 2559.8,291.2 Z M2771.8,288 C2777.4,288 2783.13333,287.866667 2789,287.6 C2794.86667,287.333333 2800.2,286.8 2805,286 L2805,242 C2802.33333,242.533333 2799.53333,242.933333 2796.6,243.2 C2793.66667,243.466667 2790.6,243.6 2787.4,243.6 C2777.8,243.6 2771.4,242 2768.2,238.8 C2765,235.6 2763.4,229.2 2763.4,219.6 L2763.4,117.2 L2805,117.2 L2805,79.2 L2763.4,79.2 L2763.4,17.2 L2706.6,17.2 L2706.6,79.2 L2672.2,79.2 L2672.2,117.2 L2706.6,117.2 L2706.6,239.2 C2706.6,249.6 2708.33333,258 2711.8,264.4 C2715.26667,270.8 2720,275.733333 2726,279.2 C2732,282.666667 2738.93333,285 2746.8,286.2 C2754.66667,287.4 2763,288 2771.8,288 Z" id="path-1"></path>
    </defs>
    <g id="Main" stroke="none" stroke-width="1" fill="none" fill-rule="evenodd">
        <g id="recent_project" fill-rule="nonzero">
            <g id="RecentProject">
                <use fill="#000000" xlink:href="#path-1"></use>
                <use fill="#111111" xlink:href="#path-1"></use>
            </g>
        </g>
    </g>
</svg>